<?xml version="1.0" encoding="UTF-8" standalone="no"?>
<svg
   xmlns:dc="http://purl.org/dc/elements/1.1/"
   xmlns:cc="http://creativecommons.org/ns#"
   xmlns:rdf="http://www.w3.org/1999/02/22-rdf-syntax-ns#"
   xmlns:svg="http://www.w3.org/2000/svg"
   xmlns="http://www.w3.org/2000/svg"
   xmlns:sodipodi="http://sodipodi.sourceforge.net/DTD/sodipodi-0.dtd"
   xmlns:inkscape="http://www.inkscape.org/namespaces/inkscape"
   id="svg8"
   version="1.1"
   viewBox="0 0 430 200"
   height="200"
   width="430"
   sodipodi:docname="clock.svg"
   inkscape:version="1.0.2 (e86c870879, 2021-01-15, custom)">
  <sodipodi:namedview
     pagecolor="#ffffff"
     bordercolor="#666666"
     borderopacity="1"
     objecttolerance="10"
     gridtolerance="10"
     guidetolerance="10"
     inkscape:pageopacity="0"
     inkscape:pageshadow="2"
     inkscape:window-width="1654"
     inkscape:window-height="694"
     id="namedview9"
     showgrid="true"
     inkscape:zoom="2.225"
     inkscape:cx="216.23968"
     inkscape:cy="98.788494"
     inkscape:window-x="0"
     inkscape:window-y="0"
     inkscape:window-maximized="0"
     inkscape:current-layer="svg8">
    <inkscape:grid
       type="xygrid"
       id="grid834" />
  </sodipodi:namedview>
  <defs
     id="defs2" />
  <metadata
     id="metadata5">
    <rdf:RDF>
      <cc:Work
         rdf:about="">
        <dc:format>image/svg+xml</dc:format>
        <dc:type
           rdf:resource="http://purl.org/dc/dcmitype/StillImage" />
        <dc:title></dc:title>
      </cc:Work>
    </rdf:RDF>
  </metadata>
  <path
     style="fill:#000000;stroke:none;stroke-width:1px;stroke-linecap:butt;stroke-linejoin:miter;stroke-opacity:1"
     d="M 30,10 20,20 30,30 H 70 L 80,20 70,10 Z"
     id="path836"
     sodipodi:nodetypes="ccccccc" />
  <path
     style="fill:#000000;stroke:none;stroke-width:1px;stroke-linecap:butt;stroke-linejoin:miter;stroke-opacity:1"
     d="M 15,25 25,35 V 85 L 15,95 5,85 V 35 Z"
     id="path838"
     sodipodi:nodetypes="ccccccc" />
  <path
     style="fill:#000000;stroke:none;stroke-width:1px;stroke-linecap:butt;stroke-linejoin:miter;stroke-opacity:1"
     d="M 85,25 95,35 V 85 L 85,95 75,85 V 35 Z"
     id="path840"
     sodipodi:nodetypes="ccccccc" />
  <path
     style="fill:#000000;stroke:none;stroke-width:1px;stroke-linecap:butt;stroke-linejoin:miter;stroke-opacity:1"
     d="m 30,90 -10,10 10,10 H 70 L 80,100 70,90 Z"
     id="path842"
     sodipodi:nodetypes="ccccccc" />
  <path
     style="fill:#000000;stroke:none;stroke-width:1px;stroke-linecap:butt;stroke-linejoin:miter;stroke-opacity:1"
     d="m 15,105 10,10 v 50 L 15,175 5,165 v -50 z"
     id="path844"
     sodipodi:nodetypes="ccccccc" />
  <path
     style="fill:#000000;stroke:none;stroke-width:1px;stroke-linecap:butt;stroke-linejoin:miter;stroke-opacity:1"
     d="m 85,105 10,10 v 50 L 85,175 75,165 v -50 z"
     id="path846"
     sodipodi:nodetypes="ccccccc" />
  <path
     style="fill:#000000;stroke:none;stroke-width:1px;stroke-linecap:butt;stroke-linejoin:miter;stroke-opacity:1"
     d="m 30,170 -10,10 10,10 H 70 L 80,180 70,170 Z"
     id="path848"
     sodipodi:nodetypes="ccccccc" />
  <path
     style="fill:#000000;stroke:none;stroke-width:1px;stroke-linecap:butt;stroke-linejoin:miter;stroke-opacity:1"
     d="m 130,10 -10,10 10,10 h 40 L 180,20 170,10 Z"
     id="path850"
     sodipodi:nodetypes="ccccccc" />
  <path
     style="fill:#000000;stroke:none;stroke-width:1px;stroke-linecap:butt;stroke-linejoin:miter;stroke-opacity:1"
     d="m 115,25 10,10 V 85 L 115,95 105,85 V 35 Z"
     id="path852"
     sodipodi:nodetypes="ccccccc" />
  <path
     style="fill:#000000;stroke:none;stroke-width:1px;stroke-linecap:butt;stroke-linejoin:miter;stroke-opacity:1"
     d="m 185,25 10,10 V 85 L 185,95 175,85 V 35 Z"
     id="path854"
     sodipodi:nodetypes="ccccccc" />
  <path
     style="fill:#000000;stroke:none;stroke-width:1px;stroke-linecap:butt;stroke-linejoin:miter;stroke-opacity:1"
     d="m 130,90 -10,10 10,10 h 40 l 10,-10 -10,-10 z"
     id="path856"
     sodipodi:nodetypes="ccccccc" />
  <path
     style="fill:#000000;stroke:none;stroke-width:1px;stroke-linecap:butt;stroke-linejoin:miter;stroke-opacity:1"
     d="m 115,105 10,10 v 50 l -10,10 -10,-10 v -50 z"
     id="path858"
     sodipodi:nodetypes="ccccccc" />
  <path
     style="fill:#000000;stroke:none;stroke-width:1px;stroke-linecap:butt;stroke-linejoin:miter;stroke-opacity:1"
     d="m 185,105 10,10 v 50 l -10,10 -10,-10 v -50 z"
     id="path860"
     sodipodi:nodetypes="ccccccc" />
  <path
     style="fill:#000000;stroke:none;stroke-width:1px;stroke-linecap:butt;stroke-linejoin:miter;stroke-opacity:1"
     d="m 130,170 -10,10 10,10 h 40 l 10,-10 -10,-10 z"
     id="path862"
     sodipodi:nodetypes="ccccccc" />
  <path
     style="fill:#000000;stroke:none;stroke-width:1px;stroke-linecap:butt;stroke-linejoin:miter;stroke-opacity:1"
     d="m 215,55 10,10 V 85 L 215,95 205,85 V 65 Z"
     id="path864"
     sodipodi:nodetypes="ccccccc" />
  <path
     style="fill:#000000;stroke:none;stroke-width:1px;stroke-linecap:butt;stroke-linejoin:miter;stroke-opacity:1"
     d="m 260,10 -10,10 10,10 h 40 L 310,20 300,10 Z"
     id="path866"
     sodipodi:nodetypes="ccccccc" />
  <path
     style="fill:#000000;stroke:none;stroke-width:1px;stroke-linecap:butt;stroke-linejoin:miter;stroke-opacity:1"
     d="m 245,25 10,10 V 85 L 245,95 235,85 V 35 Z"
     id="path868"
     sodipodi:nodetypes="ccccccc" />
  <path
     style="fill:#000000;stroke:none;stroke-width:1px;stroke-linecap:butt;stroke-linejoin:miter;stroke-opacity:1"
     d="m 315,25 10,10 V 85 L 315,95 305,85 V 35 Z"
     id="path870"
     sodipodi:nodetypes="ccccccc" />
  <path
     style="fill:#000000;stroke:none;stroke-width:1px;stroke-linecap:butt;stroke-linejoin:miter;stroke-opacity:1"
     d="m 260,90 -10,10 10,10 h 40 l 10,-10 -10,-10 z"
     id="path872"
     sodipodi:nodetypes="ccccccc" />
  <path
     style="fill:#000000;stroke:none;stroke-width:1px;stroke-linecap:butt;stroke-linejoin:miter;stroke-opacity:1"
     d="m 245,105 10,10 v 50 l -10,10 -10,-10 v -50 z"
     id="path874"
     sodipodi:nodetypes="ccccccc" />
  <path
     style="fill:#000000;stroke:none;stroke-width:1px;stroke-linecap:butt;stroke-linejoin:miter;stroke-opacity:1"
     d="m 315,105 10,10 v 50 l -10,10 -10,-10 v -50 z"
     id="path876"
     sodipodi:nodetypes="ccccccc" />
  <path
     style="fill:#000000;stroke:none;stroke-width:1px;stroke-linecap:butt;stroke-linejoin:miter;stroke-opacity:1"
     d="m 260,170 -10,10 10,10 h 40 l 10,-10 -10,-10 z"
     id="path878"
     sodipodi:nodetypes="ccccccc" />
  <path
     style="fill:#000000;stroke:none;stroke-width:1px;stroke-linecap:butt;stroke-linejoin:miter;stroke-opacity:1"
     d="m 360,10 -10,10 10,10 h 40 L 410,20 400,10 Z"
     id="path880"
     sodipodi:nodetypes="ccccccc" />
  <path
     style="fill:#000000;stroke:none;stroke-width:1px;stroke-linecap:butt;stroke-linejoin:miter;stroke-opacity:1"
     d="m 345,25 10,10 V 85 L 345,95 335,85 V 35 Z"
     id="path882"
     sodipodi:nodetypes="ccccccc" />
  <path
     style="fill:#000000;stroke:none;stroke-width:1px;stroke-linecap:butt;stroke-linejoin:miter;stroke-opacity:1"
     d="m 415,25 10,10 V 85 L 415,95 405,85 V 35 Z"
     id="path884"
     sodipodi:nodetypes="ccccccc" />
  <path
     style="fill:#000000;stroke:none;stroke-width:1px;stroke-linecap:butt;stroke-linejoin:miter;stroke-opacity:1"
     d="m 360,90 -10,10 10,10 h 40 l 10,-10 -10,-10 z"
     id="path886"
     sodipodi:nodetypes="ccccccc" />
  <path
     style="fill:#000000;stroke:none;stroke-width:1px;stroke-linecap:butt;stroke-linejoin:miter;stroke-opacity:1"
     d="m 345,105 10,10 v 50 l -10,10 -10,-10 v -50 z"
     id="path888"
     sodipodi:nodetypes="ccccccc" />
  <path
     style="fill:#000000;stroke:none;stroke-width:1px;stroke-linecap:butt;stroke-linejoin:miter;stroke-opacity:1"
     d="m 415,105 10,10 v 50 l -10,10 -10,-10 v -50 z"
     id="path890"
     sodipodi:nodetypes="ccccccc" />
  <path
     style="fill:#000000;stroke:none;stroke-width:1px;stroke-linecap:butt;stroke-linejoin:miter;stroke-opacity:1"
     d="m 360,170 -10,10 10,10 h 40 l 10,-10 -10,-10 z"
     id="path892"
     sodipodi:nodetypes="ccccccc" />
  <path
     style="fill:#000000;stroke:none;stroke-width:1px;stroke-linecap:butt;stroke-linejoin:miter;stroke-opacity:1"
     d="m 215,105 10,10 v 20 l -10,10 -10,-10 v -20 z"
     id="path894"
     sodipodi:nodetypes="ccccccc" />
</svg>
